<?xml version="1.0" encoding="UTF-8"?>
<svg width="20px" height="18px" viewBox="0 0 20 18" version="1.1" xmlns="http://www.w3.org/2000/svg" xmlns:xlink="http://www.w3.org/1999/xlink">
    <!-- Generator: sketchtool 48.1 (47250) - http://www.bohemiancoding.com/sketch -->
    <title>EF90435B-C31A-4C5C-869C-1C8B526B883B</title>
    <desc>Created with sketchtool.</desc>
    <defs></defs>
    <g id="MY-PAGE---DAY-VIEW" stroke="none" stroke-width="1" fill="none" fill-rule="evenodd" transform="translate(-163.000000, -172.000000)">
        <g id="OVERVIEW-FOLD" transform="translate(0.000000, 71.000000)" fill="#FFFFFF">
            <g id="ICONS/CAMERA" transform="translate(163.000000, 101.000000)">
                <path d="M10,6 C7.794,6 6,7.794 6,10 C6,12.206 7.794,14 10,14 C12.206,14 14,12.206 14,10 C14,7.794 12.206,6 10,6" id="Fill-318"></path>
                <path d="M10,16 C6.691,16 4,13.309 4,10 C4,6.691 6.691,4 10,4 C13.309,4 16,6.691 16,10 C16,13.309 13.309,16 10,16 M18,3 L16.07,3 C15.402,3 14.777,2.666 14.406,2.109 L13.594,0.89 C13.223,0.334 12.598,0 11.93,0 L8.07,0 C7.402,0 6.777,0.334 6.406,0.89 L5.594,2.109 C5.223,2.666 4.598,3 3.93,3 L2,3 C0.895,3 0,3.896 0,5 L0,16 C0,17.104 0.895,18 2,18 L18,18 C19.104,18 20,17.104 20,16 L20,5 C20,3.896 19.104,3 18,3" id="Fill-319"></path>
            </g>
        </g>
    </g>
</svg>