<?xml version="1.0" encoding="UTF-8"?>
<svg width="40px" height="40px" viewBox="0 0 40 40" version="1.1" xmlns="http://www.w3.org/2000/svg" xmlns:xlink="http://www.w3.org/1999/xlink">
    <!-- Generator: sketchtool 48.1 (47250) - http://www.bohemiancoding.com/sketch -->
    <title>DFB2AB1C-EB26-4BB4-938A-1F653655B299</title>
    <desc>Created with sketchtool.</desc>
    <defs></defs>
    <g id="MY-PAGE---DAY-VIEW" stroke="none" stroke-width="1" fill="none" fill-rule="evenodd" transform="translate(-1208.000000, -359.000000)">
        <g id="OVERVIEW-FOLD" transform="translate(0.000000, 71.000000)" fill="#00DB7C">
            <g id="ASIGNMENTS-BOX" transform="translate(504.000000, 159.000000)">
                <g id="MISSED-ASIGNMENT-LINE" transform="translate(97.000000, 129.000000)">
                    <g id="MISSED-ASSIGNMENT" transform="translate(607.000000, 0.000000)">
                        <path d="M23,15 C23,15 23,14.1931437 23,14 L23,10.3498981 C23,10.1565794 22.8346111,10 22.6308283,10 L13.3691717,10 C13.1653889,10 13,10.1565794 13,10.3498981 L13,29.6501019 C13,29.8434206 13.1653889,30 13.3691717,30 L27.6308283,30 C27.8347957,30 28,29.8434206 28,29.6501019 L28,15.3498981 C28,15.1567543 27.8347957,15 27.6308283,15 C24.5436094,15 23,15 23,15 Z" id="Fill-1"></path>
                        <polygon id="Fill-4" points="24 10 24 14 28 14"></polygon>
                        <path d="M20,1.44578313 C9.76963855,1.44578313 1.44578313,9.76963855 1.44578313,20 C1.44578313,30.2303614 9.76963855,38.5542169 20,38.5542169 C30.2303614,38.5542169 38.5542169,30.2303614 38.5542169,20 C38.5542169,9.76963855 30.2303614,1.44578313 20,1.44578313 M20,40 C8.97253012,40 0,31.0274699 0,20 C0,8.97253012 8.97253012,0 20,0 C31.0274699,0 40,8.97253012 40,20 C40,31.0274699 31.0274699,40 20,40" id="Fill-1"></path>
                    </g>
                </g>
            </g>
        </g>
    </g>
</svg>
