<?xml version="1.0" encoding="UTF-8"?>
<svg width="40px" height="40px" viewBox="0 0 40 40" version="1.1" xmlns="http://www.w3.org/2000/svg" xmlns:xlink="http://www.w3.org/1999/xlink">
    <!-- Generator: sketchtool 48.1 (47250) - http://www.bohemiancoding.com/sketch -->
    <title>A9D154CA-6343-44BC-A8BF-DDF2839ADDDC</title>
    <desc>Created with sketchtool.</desc>
    <defs>
        <circle id="path-1" cx="20.2096565" cy="20.2096565" r="20.2096565"></circle>
        <path d="M4.34133362,3.74252898 C3.59694461,3.74252898 2.99402319,4.34612406 2.99402319,5.08983942 L2.99402319,13.173702 C2.99402319,13.9174174 3.59694461,14.5210125 4.34133362,14.5210125 L6.36162562,14.5210125 L6.36162562,17.2156333 L9.05692014,14.5210125 L15.1198171,14.5210125 C15.8642061,14.5210125 16.4671275,13.9174174 16.4671275,13.173702 L16.4671275,5.08983942 C16.4671275,4.34612406 15.8642061,3.74252898 15.1198171,3.74252898 L4.34133362,3.74252898 Z" id="path-2"></path>
        <path d="M1.27245985,7.48505797 C0.569425785,7.48505797 0,8.05511998 0,8.75751782 L0,16.392277 C0,17.0946748 0.569425785,17.6647368 1.27245985,17.6647368 L3.18051341,17.6647368 L3.18051341,20.2096565 L6.47457514,17.6647368 L11.4521387,17.6647368 C12.1551728,17.6647368 12.7245985,17.0946748 12.7245985,16.392277 L12.7245985,8.75751782 C12.7245985,8.05511998 12.1551728,7.48505797 11.4521387,7.48505797 L1.27245985,7.48505797 Z" id="path-3"></path>
    </defs>
    <g id="MY-PAGE---WEEK-VIEW" stroke="none" stroke-width="1" fill="none" fill-rule="evenodd" transform="translate(-1124.000000, -493.000000)">
        <g id="WEEK-OVERVIEW" transform="translate(-3.000000, 0.000000)">
            <g id="CALENDAR" transform="translate(507.000000, 227.000000)">
                <g id="FORUM-ICON-FOR-ACTIVITY-LINE" transform="translate(620.000000, 266.000000)">
                    <g id="ICON">
                        <g id="Oval">
                            <use fill="#FFFFFF" fill-rule="evenodd" xlink:href="#path-1"></use>
                            <circle stroke="#B4C1C7" stroke-width="1.09468973" cx="20.2096565" cy="20.2096565" r="19.6623117"></circle>
                        </g>
                    </g>
                    <g id="Group" transform="translate(19.835404, 19.835404) scale(-1, -1) translate(-19.835404, -19.835404) translate(9.730575, 9.730575)">
                        <g id="Group-2">
                            <path d="M8.08386261,0 C7.33947359,0 6.73655217,0.603595075 6.73655217,1.34731043 L6.73655217,9.43117304 C6.73655217,10.1748884 7.33947359,10.7784835 8.08386261,10.7784835 L10.1041546,10.7784835 L10.1041546,13.4731043 L12.7994491,10.7784835 L18.8623461,10.7784835 C19.6067351,10.7784835 20.2096565,10.1748884 20.2096565,9.43117304 L20.2096565,1.34731043 C20.2096565,0.603595075 19.6067351,0 18.8623461,0 L8.08386261,0 Z" id="Fill-110-Copy-2" fill="#B4C1C7"></path>
                            <g id="Fill-110-Copy">
                                <use fill="#B4C1C7" fill-rule="evenodd" xlink:href="#path-2"></use>
                                <path stroke="#FFFFFF" stroke-width="1.09468973" d="M9.28359774,15.0683573 L5.81428075,18.5368072 L5.81428075,15.0683573 L4.34133362,15.0683573 C3.29484468,15.0683573 2.44667832,14.219898 2.44667832,13.173702 L2.44667832,5.08983942 C2.44667832,4.04364345 3.29484468,3.19518412 4.34133362,3.19518412 L15.1198171,3.19518412 C16.166306,3.19518412 17.0144724,4.04364345 17.0144724,5.08983942 L17.0144724,13.173702 C17.0144724,14.219898 16.166306,15.0683573 15.1198171,15.0683573 L9.28359774,15.0683573 Z"></path>
                            </g>
                            <g id="Fill-110">
                                <use fill="#B4C1C7" fill-rule="evenodd" xlink:href="#path-3"></use>
                                <path stroke="#FFFFFF" stroke-width="1.09468973" d="M6.66138042,18.2120817 L2.63316854,21.3241896 L2.63316854,18.2120817 L1.27245985,18.2120817 C0.267312932,18.2120817 -0.547344864,17.3971425 -0.547344864,16.392277 L-0.547344864,8.75751782 C-0.547344864,7.7526523 0.267312932,6.93771311 1.27245985,6.93771311 L11.4521387,6.93771311 C12.4572856,6.93771311 13.2719434,7.7526523 13.2719434,8.75751782 L13.2719434,16.392277 C13.2719434,17.3971425 12.4572856,18.2120817 11.4521387,18.2120817 L6.66138042,18.2120817 Z"></path>
                            </g>
                        </g>
                    </g>
                </g>
            </g>
        </g>
    </g>
</svg>