<?xml version="1.0" encoding="UTF-8"?>
<svg width="40px" height="57px" viewBox="0 0 40 57" version="1.1" xmlns="http://www.w3.org/2000/svg" xmlns:xlink="http://www.w3.org/1999/xlink">
    <!-- Generator: sketchtool 48.1 (47250) - http://www.bohemiancoding.com/sketch -->
    <title>8D799006-8977-4E56-9FE6-A69C77EE2049</title>
    <desc>Created with sketchtool.</desc>
    <defs></defs>
    <g id="MY-PAGE---WEEK-VIEW" stroke="none" stroke-width="1" fill="none" fill-rule="evenodd" transform="translate(-376.000000, -567.000000)">
        <g id="WEEK-OVERVIEW" transform="translate(-3.000000, 0.000000)" fill="#FFC60B">
            <g id="ACHIEVEMENTS">
                <g id="GRADES-ICON" transform="translate(379.000000, 567.000000)">
                    <path d="M17.16,33.0877181 L6.05176,22.1677534 L11.10824,17.1969764 L17.16,23.1461642 L28.93176,11.5739256 L33.98824,16.5447025 L17.16,33.0877181 Z M34.32,0.00168691525 L5.72,0.00168691525 C2.56542,0.00168691525 0,2.52643675 0,5.62473776 L0,53.42067 C0,54.4581228 0.58058,55.41123 1.51008,55.9004354 C2.43672,56.3868293 3.56642,56.3334103 4.4473,55.7570476 L20.02,45.5540218 L35.5927,55.7570476 C36.07318,56.0719384 36.62516,56.2321954 37.18,56.2321954 C37.64332,56.2321954 38.10664,56.1225459 38.52992,55.9004354 C39.45942,55.41123 40.04,54.4581228 40.04,53.42067 L40.04,5.62473776 C40.04,2.52643675 37.47458,0.00168691525 34.32,0.00168691525 L34.32,0.00168691525 Z" id="Fill-173"></path>
                </g>
            </g>
        </g>
    </g>
</svg>