<?xml version="1.0" encoding="UTF-8"?>
<svg width="64px" height="64px" viewBox="0 0 64 64" version="1.1" xmlns="http://www.w3.org/2000/svg" xmlns:xlink="http://www.w3.org/1999/xlink">
    <!-- Generator: sketchtool 48.1 (47250) - http://www.bohemiancoding.com/sketch -->
    <title>850928E8-9C55-4663-ABC5-AA2DF7EB42B8</title>
    <desc>Created with sketchtool.</desc>
    <defs>
        <path d="M56,28 C56,12.536 43.464,0 28,0 C12.536,0 0,12.536 0,28 C0,43.464 12.536,56 28,56 C43.464,56 56,43.464 56,28" id="path-1"></path>
        <filter x="-12.5%" y="-8.9%" width="125.0%" height="125.0%" filterUnits="objectBoundingBox" id="filter-2">
            <feOffset dx="0" dy="2" in="SourceAlpha" result="shadowOffsetOuter1"></feOffset>
            <feGaussianBlur stdDeviation="2" in="shadowOffsetOuter1" result="shadowBlurOuter1"></feGaussianBlur>
            <feColorMatrix values="0 0 0 0 0   0 0 0 0 0   0 0 0 0 0  0 0 0 0.3 0" type="matrix" in="shadowBlurOuter1"></feColorMatrix>
        </filter>
    </defs>
    <g id="MY-PAGE---DAY-VIEW" stroke="none" stroke-width="1" fill="none" fill-rule="evenodd" transform="translate(-44.000000, -761.000000)">
        <g id="BUTTONS/HELP" transform="translate(48.000000, 763.000000)">
            <g id="Fill-1">
                <use fill="black" fill-opacity="1" filter="url(#filter-2)" xlink:href="#path-1"></use>
                <use fill="#19284F" fill-rule="evenodd" xlink:href="#path-1"></use>
            </g>
            <path d="M24.7860626,37.0932842 C24.7860626,36.2664054 25.0241623,35.6393884 25.5017461,35.2083141 C25.9793299,34.7785462 26.6645588,34.5630091 27.5602014,34.5630091 C28.4572283,34.5630091 29.14661,34.7837713 29.629731,35.2239895 C30.1114677,35.6642078 30.3537203,36.2859997 30.3537203,37.0932842 C30.3537203,37.8966498 30.1059305,38.5275857 29.6145037,38.9847856 C29.1203083,39.4380667 28.437848,39.6666667 27.5602014,39.6666667 C26.6880919,39.6666667 26.0056316,39.4445981 25.5169734,38.9978485 C25.0296995,38.5550177 24.7860626,37.9175503 24.7860626,37.0932842 M28.5236747,17 C30.6984112,17 32.4315558,17.4950822 33.725877,18.4852467 C35.0201982,19.4767174 35.6666667,20.7973721 35.6666667,22.448517 C35.6666667,23.560166 35.4050338,24.507223 34.8789995,25.2949132 C34.3557338,26.0786845 33.34381,26.9826341 31.8487651,28.0028431 C30.8202297,28.7134624 30.1737612,29.2542646 29.9079755,29.6239434 C29.643574,29.9949285 29.5106811,30.4795605 29.5106811,31.0804518 L29.5106811,31.9804826 L25.2954853,31.9804826 L25.2954853,30.8701398 C25.2954853,29.91002 25.5114362,29.0700784 25.947491,28.3568465 C26.3821614,27.6396957 27.1684442,26.895113 28.3104924,26.1178731 C29.4483876,25.344552 30.1945257,24.7253727 30.5447538,24.2655602 C30.8949819,23.8044414 31.0694038,23.2649454 31.0694038,22.6444598 C31.0694038,22.0239742 30.8160768,21.5432611 30.3149599,21.2023206 C29.8083058,20.8626863 29.0967752,20.6928692 28.1748309,20.6928692 C26.5939594,20.6928692 24.7805254,21.1827263 22.7345289,22.1637467 L21,18.875826 C23.3754601,17.6257108 25.8838131,17 28.5236747,17" id="Fill-5" fill="#FFFFFF"></path>
        </g>
    </g>
</svg>