<?xml version="1.0" encoding="UTF-8"?>
<svg width="6px" height="14px" viewBox="0 0 6 14" version="1.1" xmlns="http://www.w3.org/2000/svg" xmlns:xlink="http://www.w3.org/1999/xlink">
    <!-- Generator: sketchtool 50.2 (55047) - http://www.bohemiancoding.com/sketch -->
    <title>8A9FCDFB-D4C7-45DD-B35B-963BF6C50032</title>
    <desc>Created with sketchtool.</desc>
    <defs></defs>
    <g id="COURSE" stroke="none" stroke-width="1" fill="none" fill-rule="evenodd">
        <g id="COURSE-1-HELP-BUTTON-HOVER-B" transform="translate(-248.000000, -660.000000)" fill="#FFFFFF" fill-rule="nonzero">
            <g id="HELP-OPEN" transform="translate(48.000000, 403.000000)">
                <g id="ICONS/INFO" transform="translate(200.000000, 257.000000)">
                    <path d="M3.47061711,3.55271368e-15 C4.44738777,3.55271368e-15 5.22880429,0.841530055 5.22880429,1.86156648 C5.22880429,2.88160291 4.4229685,3.72313297 3.47061711,3.72313297 C2.49384645,3.72313297 1.68801066,2.88160291 1.68801066,1.83606557 C1.68801066,0.816029144 2.49384645,3.55271368e-15 3.47061711,3.55271368e-15 Z M5.98580155,12.4699454 C5.93696302,12.6229508 5.83928596,12.8014572 5.74160889,12.9034608 C5.10670796,13.5919854 4.32529144,14 3.39735931,14 C2.95781252,14 2.54268499,14 2.10313819,13.9234973 C1.39497946,13.8214936 0.491466606,12.9034608 0.613562938,11.9344262 C0.711240004,11.2714026 0.80891707,10.6083789 0.906594135,9.94535519 C1.10194827,8.79781421 1.2973024,7.62477231 1.49265653,6.47723133 C1.49265653,6.4007286 1.5170758,6.32422587 1.5170758,6.24772313 C1.5170758,5.76320583 1.3705602,5.58469945 0.906594135,5.53369763 C0.711240004,5.50819672 0.515885872,5.48269581 0.320531741,5.43169399 C0.100758343,5.35519126 -0.0213379894,5.15118397 0.00308127706,4.9726776 C0.0275005435,4.76867031 0.149596876,4.64116576 0.39378954,4.59016393 C0.515885872,4.56466302 0.662401471,4.56466302 0.80891707,4.56466302 C1.34614093,4.56466302 1.88336479,4.56466302 2.44500792,4.56466302 C3.03107032,4.56466302 3.59271344,4.56466302 4.17877584,4.56466302 C4.59390337,4.56466302 4.83809603,4.76867031 4.83809603,5.20218579 C4.83809603,5.55919854 4.7892575,5.91621129 4.7159997,6.27322404 C4.4962263,7.5992714 4.25203364,8.89981785 4.03226024,10.2258652 C3.95900244,10.6593807 3.86132537,11.0928962 3.81248684,11.5264117 C3.78806758,11.7304189 3.81248684,11.9599271 3.86132537,12.1639344 C3.93458317,12.4444444 4.12993731,12.5974499 4.39854924,12.571949 C4.61832263,12.5464481 4.83809603,12.4699454 5.05786943,12.3679417 C5.22880429,12.291439 5.37531989,12.1639344 5.54625476,12.1129326 C5.83928596,12.010929 6.05905935,12.1894353 5.98580155,12.4699454 Z" id="Shape-Copy"></path>
                </g>
            </g>
        </g>
    </g>
</svg>