<?xml version="1.0" encoding="UTF-8"?>
<svg width="49px" height="60px" viewBox="0 0 49 60" version="1.1" xmlns="http://www.w3.org/2000/svg" xmlns:xlink="http://www.w3.org/1999/xlink">
    <!-- Generator: sketchtool 48.1 (47250) - http://www.bohemiancoding.com/sketch -->
    <title>CFD5B197-59DD-4E21-B581-E246978CAEA8</title>
    <desc>Created with sketchtool.</desc>
    <defs></defs>
    <g id="MY-PAGE---WEEK-VIEW" stroke="none" stroke-width="1" fill="none" fill-rule="evenodd" transform="translate(-300.000000, -565.000000)">
        <g id="WEEK-OVERVIEW" transform="translate(-3.000000, 0.000000)" fill="#FFC60B">
            <g id="ACHIEVEMENTS">
                <path d="M351.181818,589.285714 C351.181818,575.874286 340.394759,565 327.090909,565 C313.787059,565 303,575.874286 303,589.285714 C303,598.734286 308.365187,606.902857 316.179144,610.917143 L316.179144,623.428571 C316.179144,624.008571 316.496578,624.54 317.00107,624.814286 C317.508396,625.085714 318.123422,625.057143 318.602406,624.734286 L327.090909,619.031429 L335.579412,624.734286 C335.84016,624.911429 336.140588,625 336.44385,625 C336.696096,625 336.951176,624.94 337.180749,624.814286 C337.685241,624.54 338.002674,624.008571 338.002674,623.428571 L338.002674,610.917143 C345.816631,606.902857 351.181818,598.734286 351.181818,589.285714" id="MEDAL-ICON"></path>
            </g>
        </g>
    </g>
</svg>