<?xml version="1.0" encoding="UTF-8"?>
<svg width="16px" height="14px" viewBox="0 0 16 14" version="1.1" xmlns="http://www.w3.org/2000/svg" xmlns:xlink="http://www.w3.org/1999/xlink">
    <!-- Generator: sketchtool 50.2 (55047) - http://www.bohemiancoding.com/sketch -->
    <title>14E05CCF-0BCC-4E53-8D07-7031247DA015</title>
    <desc>Created with sketchtool.</desc>
    <defs></defs>
    <g id="COURSE" stroke="none" stroke-width="1" fill="none" fill-rule="evenodd">
        <g id="COURSE-1-HELP-BUTTON-HOVER-B" transform="translate(-244.000000, -483.000000)" fill="#FFFFFF">
            <g id="HELP-OPEN" transform="translate(48.000000, 403.000000)">
                <g id="ICONS/TEACHER_HAT" transform="translate(196.000000, 80.000000)">
                    <path d="M15.5978182,3.76213158 L8.32509091,0.0779210526 C8.12072727,-0.0259736842 7.87927273,-0.0259736842 7.67418182,0.0779210526 L0.401454545,3.76213158 C0.254545455,3.83655263 0.143272727,3.96402632 0.0778181818,4.10328947 C0.0334545455,4.19244737 0,4.34571053 0,4.42086842 L0,8.66876316 C0,9.0755 0.325090909,9.40560526 0.727272727,9.40560526 C1.12872727,9.40560526 1.45454545,9.0755 1.45454545,8.66876316 L1.45454545,5.2815 L8.01018182,8.04834211 L15.5425455,5.10539474 C15.808,4.99781579 15.9876364,4.74213158 15.9992727,4.45181579 C16.0109091,4.1615 15.8538182,3.89181579 15.5978182,3.76213158" id="Fill-396"></path>
                    <path d="M7.75757576,9.55414035 C7.66230303,9.55414035 7.5670303,9.53498246 7.47757576,9.49740351 L2.66666667,7.46666667 L2.66666667,9.68750877 C2.66666667,9.96603509 2.82230303,10.2217193 3.06884848,10.3462456 C4.31612121,10.9784561 5.60121212,11.7602456 7.75757576,11.7602456 C9.91248485,11.7602456 11.2012121,10.9769825 12.446303,10.3462456 C12.6928485,10.2217193 12.8484848,9.96603509 12.8484848,9.68750877 L12.8484848,7.62287719 L8.01866667,9.50550877 C7.93430303,9.53792982 7.84630303,9.55414035 7.75757576,9.55414035" id="Fill-397"></path>
                    <path d="M0.727272727,10.2666667 C0.325818182,10.2666667 0,10.5967719 0,11.0035088 L0,12.477193 C0,12.8839298 0.325818182,13.2140351 0.727272727,13.2140351 C1.12872727,13.2140351 1.45454545,12.8839298 1.45454545,12.477193 L1.45454545,11.0035088 C1.45454545,10.5967719 1.12872727,10.2666667 0.727272727,10.2666667" id="Fill-398"></path>
                </g>
            </g>
        </g>
    </g>
</svg>