<?xml version="1.0" encoding="UTF-8"?>
<svg width="16px" height="16px" viewBox="0 0 16 16" version="1.1" xmlns="http://www.w3.org/2000/svg" xmlns:xlink="http://www.w3.org/1999/xlink">
    <!-- Generator: sketchtool 50.2 (55047) - http://www.bohemiancoding.com/sketch -->
    <title>240ADA2E-ABF7-458C-BC13-3F0BF90CC5CA</title>
    <desc>Created with sketchtool.</desc>
    <defs></defs>
    <g id="COURSE" stroke="none" stroke-width="1" fill="none" fill-rule="evenodd">
        <g id="COURSE-1-HELP-BUTTON-HOVER-B" transform="translate(-244.000000, -544.000000)" fill="#FFFFFF">
            <g id="HELP-OPEN" transform="translate(48.000000, 403.000000)">
                <g id="ICONS/TECH_SUPPORT" transform="translate(196.000000, 141.000000)">
                    <path d="M9.47769885,2.16519885 L7.22769885,2.16519885 L7.22769885,-0.0848011472 L7.22769885,-0.0848011472 C5.98505817,-0.0848011472 4.97769885,0.922558166 4.97769885,2.16519885 L4.97769885,3.29019885 C4.97769885,3.91119885 5.48169885,4.41519885 6.10269885,4.41519885 L7.22769885,4.41519885 L7.22769885,12.2901989 L6.10269885,12.2901989 C5.48169885,12.2901989 4.97769885,12.7930739 4.97769885,13.4151989 L4.97769885,14.5401989 L4.97769885,14.5401989 C4.97769885,15.7828395 5.98505817,16.7901989 7.22769885,16.7901989 L7.22769885,14.5401989 L9.47769885,14.5401989 L9.47769885,16.7901989 L9.47769885,16.7901989 C10.7203395,16.7901989 11.7276989,15.7828395 11.7276989,14.5401989 L11.7276989,13.4151989 C11.7276989,12.7930739 11.2236989,12.2901989 10.6026989,12.2901989 L9.47769885,12.2901989 L9.47769885,4.41519885 L10.6026989,4.41519885 C11.2236989,4.41519885 11.7276989,3.91119885 11.7276989,3.29019885 L11.7276989,2.16519885 C11.7276989,0.922558166 10.7203395,-0.0848011472 9.47769885,-0.0848011472 L9.47769885,2.16519885 Z" id="Fill-1" transform="translate(8.352699, 8.352699) rotate(-315.000000) translate(-8.352699, -8.352699) "></path>
                </g>
            </g>
        </g>
    </g>
</svg>