<?xml version="1.0" encoding="UTF-8"?>
<svg width="18px" height="11px" viewBox="0 0 18 11" version="1.1" xmlns="http://www.w3.org/2000/svg" xmlns:xlink="http://www.w3.org/1999/xlink">
    <!-- Generator: sketchtool 50.2 (55047) - http://www.bohemiancoding.com/sketch -->
    <title>EF79E9E8-3321-4BB0-ABAC-1D93719707C7</title>
    <desc>Created with sketchtool.</desc>
    <defs></defs>
    <g id="LOGIN" stroke="none" stroke-width="1" fill="none" fill-rule="evenodd">
        <g id="LOGIN-2" transform="translate(-648.000000, -382.000000)" fill="#929191">
            <g id="BUTTONS/LOGIN-OPTIONS" transform="translate(430.000000, 370.000000)">
                <g id="כניסה-עם-גוגל">
                    <g id="Google" transform="translate(218.000000, 12.000000)">
                        <path d="M10.4175773,4.74288747 L5.49219578,4.74288747 L5.49219578,6.47672807 L8.57093224,6.47672807 L8.5403116,6.63272949 C8.44468698,7.12192566 8.13121469,7.60966942 7.79049522,7.98458778 C6.56086902,9.33770041 4.28255084,9.31862109 2.97935726,7.96577254 C1.67486619,6.61199972 1.68907365,4.28102291 3.01121051,2.94507506 C4.11082875,1.83405181 5.80203512,1.64979453 7.03438604,2.43580931 L7.52554886,2.7777845 L8.93636879,1.35541859 L8.11642337,0.783171309 L7.32197352,0.384024209 C5.41077862,-0.38383552 3.15393382,-0.00244736318 1.59507088,1.54852234 C-0.511654944,3.6443417 -0.5344258,7.2176523 1.54414461,9.34166151 C3.62485587,11.4681794 7.23140909,11.4839578 9.17309487,9.38034828 C9.94016779,8.54930896 10.3521192,7.47730258 10.4647408,6.32151887 L10.4795322,5.1450054 L10.4175773,4.74288747 Z" id="Fill-1"></path>
                        <polygon id="Page-1" points="14.4657503 3 14.4657503 4.69608249 13 4.69608249 13 6.35654909 14.4657503 6.35654909 14.4657503 8.05263158 15.9007214 8.05263158 15.9007214 6.35654909 17.3664717 6.35654909 17.3664717 4.69608249 15.9007214 4.69608249 15.9007214 3"></polygon>
                    </g>
                </g>
            </g>
        </g>
    </g>
</svg>