<?xml version="1.0" encoding="UTF-8"?>
<svg width="16px" height="15px" viewBox="0 0 16 15" version="1.1" xmlns="http://www.w3.org/2000/svg" xmlns:xlink="http://www.w3.org/1999/xlink">
    <!-- Generator: sketchtool 48.1 (47250) - http://www.bohemiancoding.com/sketch -->
    <title>E1437782-8B20-4590-BA6A-909176222197</title>
    <desc>Created with sketchtool.</desc>
    <defs></defs>
    <g id="LOGIN-2" stroke="none" stroke-width="1" fill="none" fill-rule="evenodd" transform="translate(-1000.000000, -449.000000)">
        <g id="PASSWORD" transform="translate(732.000000, 443.000000)" fill="#E4E4E3">
            <path d="M274.375,13.8577078 C272.436051,13.3570361 271,11.5934158 271,9.5 C271,7.01825 273.01825,5 275.5,5 C277.98175,5 280,7.01825 280,9.5 C280,11.5934158 278.563949,13.3570361 276.625,13.8577078 L276.625,21.875 C276.625,22.4963203 276.12132,23 275.5,23 C274.87868,23 274.375,22.4963203 274.375,21.875 L274.375,13.8577078 Z M275.5,8.375 C276.12132,8.375 276.625,7.87132034 276.625,7.25 C276.625,6.62867966 276.12132,6.125 275.5,6.125 C274.87868,6.125 274.375,6.62867966 274.375,7.25 C274.375,7.87132034 274.87868,8.375 275.5,8.375 Z" id="ICONS/PASSWORD" transform="translate(275.500000, 14.000000) rotate(-315.000000) translate(-275.500000, -14.000000) "></path>
        </g>
    </g>
</svg>