<svg xmlns="http://www.w3.org/2000/svg"><defs><path d="M31 15.5C31 6.94 24.06 0 15.5 0 6.94 0 0 6.94 0 15.5 0 24.06 6.94 31 15.5 31 24.06 31 31 24.06 31 15.5z" id="mask-a"/></defs><symbol id="asignment" viewBox="0 0 40 40"><title>DFB2AB1C-EB26-4BB4-938A-1F653655B299</title><g fill="#E8270C" fill-rule="evenodd"><path d="M23 15v-4.65a.36.36 0 0 0-.37-.35h-9.26a.36.36 0 0 0-.37.35v19.3c0 .193.165.35.37.35h14.26a.36.36 0 0 0 .37-.35v-14.3a.36.36 0 0 0-.37-.35H23z"/><path d="M24 10v4h4z"/><path d="M20 1.446C9.77 1.446 1.446 9.77 1.446 20 1.446 30.23 9.77 38.554 20 38.554c10.23 0 18.554-8.324 18.554-18.554C38.554 9.77 30.23 1.446 20 1.446M20 40C8.973 40 0 31.027 0 20S8.973 0 20 0s20 8.973 20 20-8.973 20-20 20"/></g></symbol><symbol id="camera" viewBox="0 0 20 18"><title>EF90435B-C31A-4C5C-869C-1C8B526B883B</title><g fill="#FFF" fill-rule="evenodd"><path d="M10 6c-2.206 0-4 1.794-4 4s1.794 4 4 4 4-1.794 4-4-1.794-4-4-4"/><path d="M10 16c-3.309 0-6-2.691-6-6s2.691-6 6-6 6 2.691 6 6-2.691 6-6 6m8-13h-1.93a2 2 0 0 1-1.664-.891L13.594.89A2.001 2.001 0 0 0 11.93 0H8.07c-.668 0-1.293.334-1.664.89l-.812 1.219A2 2 0 0 1 3.93 3H2a2 2 0 0 0-2 2v11a2 2 0 0 0 2 2h16a2 2 0 0 0 2-2V5a2 2 0 0 0-2-2"/></g></symbol><symbol id="chat" viewBox="0 0 22 22"><title>C5D0D0B4-E5FD-4FC2-84A1-A73FAE73B823</title><path d="M2.2 0A2.2 2.2 0 0 0 0 2.2v13.2a2.2 2.2 0 0 0 2.2 2.2h3.299V22l6.401-4.4h7.9a2.2 2.2 0 0 0 2.2-2.2V2.2A2.2 2.2 0 0 0 19.8 0H2.2z" fill="#717171" fill-rule="evenodd"/></symbol><symbol id="language" viewBox="0 0 22 22"><title>5760F278-C636-4912-80C2-E666852898AD</title><path d="M11 0C4.935 0 0 4.935 0 11s4.935 11 11 11 11-4.935 11-11S17.065 0 11 0zM2.062 10.828c0-.65.073-1.282.207-1.89h1.856c-.1.624-.155 1.264-.155 1.917 0 .635.054 1.256.148 1.864h-1.85a8.832 8.832 0 0 1-.205-1.89zm4.126.027c0-.656.071-1.297.204-1.918h3.577v3.782H6.377a9.304 9.304 0 0 1-.19-1.864zm5.843-7.418c1.207.964 2.136 2.13 2.75 3.438h-2.75V3.437zm-2.062 0v3.438h-2.75C7.833 5.568 8.76 4.4 9.969 3.437zm0 11.688v3.781a10.25 10.25 0 0 1-2.75-3.781h2.75zm2.062 3.438v-3.438h2.75c-.603 1.308-1.529 2.469-2.75 3.438zm0-5.844V8.938h3.58a9.282 9.282 0 0 1 .014 3.781h-3.594zm5.5-3.781h1.857a8.814 8.814 0 0 1 0 3.78h-1.85c.094-.607.148-1.228.148-1.863 0-.653-.056-1.293-.155-1.918zm1.375-2.063h-1.719a12.22 12.22 0 0 0-2.406-4.125c1.776.852 3.231 2.312 4.125 4.125zM7.22 2.75a12.22 12.22 0 0 0-2.406 4.125h-1.72c.894-1.813 2.35-3.273 4.126-4.125zM3.094 15.125h1.713a12.197 12.197 0 0 0 2.412 4.125c-1.775-.854-3.23-2.313-4.125-4.125zM14.78 19.25a12.187 12.187 0 0 0 2.412-4.125h1.713c-.894 1.812-2.35 3.271-4.125 4.125z" fill="#717171" fill-rule="nonzero"/></symbol><symbol id="mask" viewBox="0 0 31 31"><title>AC936149-D592-4799-BAAB-BA09D02FBB75</title></symbol><symbol id="notification" viewBox="0 0 20 25"><title>770AF43B-15F5-4561-AC3A-FCE5F8B8A5E0</title><g fill="#717171" fill-rule="nonzero"><path d="M7 20c0 2.761 1.343 5 3 5s3-2.239 3-5"/><path d="M7.524 3.243c-3.552.948-6.14 3.885-6.14 7.367v3.625a35.1 35.1 0 0 1-.2 3.406l-.179 1.509c-.055.47.332.85.859.85h16.272c.53 0 .914-.382.859-.85l-.178-1.51c-.111-.937-.2-2.462-.2-3.405V10.61c0-3.481-2.592-6.422-6.148-7.369-.104-.027-.315-.176-.315-.289C12.154 1.864 11.19 1 10 1c-1.187 0-2.154.86-2.154 1.922a.306.306 0 0 1-.227.297l-.095.024z" stroke="#F3F2F0"/></g></symbol><symbol id="toggle" viewBox="0 0 24 14"><title>EA773B2E-DF6E-4855-9525-A8528C90B14E</title><path d="M17 10a3 3 0 1 1 0-6 3 3 0 0 1 0 6m0-10H7C3.14 0 0 3.14 0 7s3.14 7 7 7h10c3.86 0 7-3.14 7-7s-3.14-7-7-7" fill="#717171" fill-rule="evenodd"/></symbol></svg>