<?xml version="1.0" encoding="UTF-8"?>
<svg width="40px" height="40px" viewBox="0 0 40 40" version="1.1" xmlns="http://www.w3.org/2000/svg" xmlns:xlink="http://www.w3.org/1999/xlink">
    <!-- Generator: sketchtool 48.1 (47250) - http://www.bohemiancoding.com/sketch -->
    <title>A4EBBF34-5666-4DB1-A990-ED284C8AF929</title>
    <desc>Created with sketchtool.</desc>
    <defs>
        <circle id="path-1" cx="19.8503737" cy="19.8503737" r="19.8503737"></circle>
    </defs>
    <g id="MY-PAGE---WEEK-VIEW" stroke="none" stroke-width="1" fill="none" fill-rule="evenodd" transform="translate(-782.000000, -355.000000)">
        <g id="WEEK-OVERVIEW" transform="translate(-3.000000, 0.000000)">
            <g id="CALENDAR" transform="translate(507.000000, 227.000000)">
                <g id="UPCOMING-ASSIGNMENT" transform="translate(278.000000, 128.000000)">
                    <g id="Group-7">
                        <g id="Oval">
                            <use fill="#FFFFFF" fill-rule="evenodd" xlink:href="#path-1"></use>
                            <circle stroke="#FF8E4B" stroke-width="1.09468973" cx="19.8503737" cy="19.8503737" r="19.3030289"></circle>
                        </g>
                        <g id="Page-1" transform="translate(13.233582, 9.557587)" fill="#FF8E4B">
                            <g id="Group-3">
                                <path d="M10.2370188,4.69098854 C10.0390531,4.69098854 9.87838517,4.53632823 9.87838517,4.34576465 L9.87838517,0.46268632 C9.87838517,0.27195012 9.71771729,0.117462429 9.5197515,0.117462429 L0.358633672,0.117462429 C0.160667885,0.117462429 0,0.27195012 0,0.46268632 L0,19.5050635 C0,19.6957997 0.160667885,19.8502874 0.358633672,19.8502874 L14.2131904,19.8502874 C14.4113355,19.8502874 14.571824,19.6957997 14.571824,19.5050635 L14.571824,5.03621243 C14.571824,4.84564884 14.4113355,4.69098854 14.2131904,4.69098854 L10.2370188,4.69098854 Z" id="Fill-1"></path>
                            </g>
                            <polygon id="Fill-4" points="11.0279854 0.735199027 11.0279854 3.67599514 13.9687815 3.67599514"></polygon>
                        </g>
                    </g>
                </g>
            </g>
        </g>
    </g>
</svg>