<?xml version="1.0" encoding="utf-8"?>
<!-- Generator: Adobe Illustrator 22.1.0, SVG Export Plug-In . SVG Version: 6.00 Build 0)  -->
<svg version="1.1" id="Layer_1" xmlns="http://www.w3.org/2000/svg" xmlns:xlink="http://www.w3.org/1999/xlink" x="0px" y="0px"
	 viewBox="0 0 32 32" style="enable-background:new 0 0 32 32;" xml:space="preserve">
<style type="text/css">
	.st0{fill:#83D3AE;}
	.st1{fill:#83D3AE;stroke:#19284F;stroke-miterlimit:10;}
	.st2{fill:#FFDC4F;}
	.st3{fill:#973A91;}
	.st4{fill:#19284F;}
	.st5{fill:none;stroke:#19284F;stroke-miterlimit:10;}
	.st6{fill:#FFFFFF;stroke:#19284F;stroke-miterlimit:10;}
	.st7{fill:#00FF7F;}
	.st8{fill:#19284F;stroke:#19284F;stroke-width:0.5;stroke-miterlimit:10;}
	.st9{fill:none;stroke:#19284F;stroke-width:2;stroke-miterlimit:10;}
	.st10{clip-path:url(#SVGID_2_);fill:#19284F;}
	.st11{fill:#973A91;stroke:#19284F;stroke-miterlimit:10;}
	.st12{fill:none;stroke:#19284F;stroke-linecap:round;stroke-miterlimit:10;}
	.st13{fill:#83D3AE;stroke:#19284F;stroke-linecap:round;stroke-miterlimit:10;}
	.st14{fill:#973A91;stroke:#19284F;stroke-linecap:round;stroke-miterlimit:10;}
	.st15{fill:#FFFFFF;stroke:#19284F;stroke-linecap:round;stroke-miterlimit:10;}
	.st16{fill:none;stroke:#E7443C;stroke-width:4;stroke-miterlimit:10;}
	.st17{fill:none;stroke:#F8BB2D;stroke-width:4;stroke-miterlimit:10;}
	.st18{fill:none;stroke:#3AA757;stroke-width:4;stroke-miterlimit:10;}
	.st19{fill:none;stroke:#19284F;stroke-width:4;stroke-miterlimit:10;}
	.st20{fill:none;stroke:#19284F;stroke-linecap:round;stroke-linejoin:round;stroke-miterlimit:10;}
	.st21{fill:#973A91;stroke:#19284F;stroke-linecap:round;stroke-linejoin:round;stroke-miterlimit:10;}
	.st22{fill:#FFFFFF;}
	.st23{fill:#19284F;stroke:#19284F;stroke-miterlimit:10;}
	.st24{fill:none;stroke:#19284F;stroke-linejoin:round;stroke-miterlimit:10;}
</style>
<g>
	<g>
		<path class="st6" d="M31.5,8.4v18.3c0,1-0.8,1.9-1.9,1.9H5.2c-1,0-1.9-0.8-1.9-1.9V2.4c0-1,0.8-1.9,1.9-1.9h18.5"/>
		<path class="st6" d="M22.8,1.4c0.2-0.9,1.3-1.2,2-0.6l6.4,7.1c0.7,0.6,0.4,1.7-0.5,2l-7.9,1.5c-0.9,0.3-1.7-0.5-1.5-1.4L22.8,1.4z
			"/>
	</g>
	<g>
		<circle class="st1" cx="9.8" cy="22.2" r="9.3"/>
		<path class="st4" d="M16.5,16.2c-1.8-2.3-4.2-2.8-6.9-3.5c-0.3-0.1-0.6,0-0.9,0c0,0,0,0-0.1,0c-1.8-0.9-3.3,1.7-1.6,2.6
			c0,0.3,0.1,0.7,0.5,1c0.8,0.7,0.8,1.6,1.4,2.4c0.5,0.6,1.3,0.8,2.1,0.8c0.9,0,1.6-0.3,2.5-0.6c0.6-0.2,0.3-0.2,0.9-0.2
			c0.5,0,0.9,0.1,1.5,0C17.1,18.5,17.2,17.1,16.5,16.2z"/>
		<path class="st4" d="M8.3,25.9c-0.4-0.3-0.9-0.5-1.4-0.5C7,24.8,7,24.2,6.6,23.5c-0.9-1.3-2.8-0.9-4.1-0.9c-1.5,0-1.9,1.8-1.1,2.6
			c0,0.1,0,0.3,0.1,0.4c0.4,1.4,1.3,2.6,2.5,3.5c1.1,0.7,2.8,1.4,4.1,1C8.5,30,9,29.6,9.1,29C9.2,28.1,9,26.6,8.3,25.9z"/>
		<path class="st4" d="M18.4,24.1c-0.3-0.8-1-1.6-1.9-1.8c-0.9-0.2-1.6,0.2-2.1,0.9c-0.1,0.1-0.3,0.2-0.4,0.3
			c-0.8,0.8-0.9,2-0.5,2.9c0.1,0.3,0.2,0.6,0.2,1c0,0.6-0.2,1.1-0.4,1.7c-0.6,1.9,1.3,1.4,2.8,0.3c0.6-0.4,0.6-1,0.7-1.8
			C18,27.1,18.9,25.6,18.4,24.1z"/>
		<path class="st4" d="M6.1,15.5c-0.4-0.8-1.4-0.9-2.1-0.6c-0.4,0.3-0.7,0.7-0.7,1.1c-0.5,0.2-0.9,0.6-1,1.1c-0.7,0.3-1.1,1-0.9,1.8
			c0.2,0.8,1.1,1.3,1.9,1.1c0.2,0,0.4-0.1,0.6-0.2c0.7-0.3,1.4-0.7,1.9-1.3C6.5,17.6,6.6,16.5,6.1,15.5z"/>
		<path class="st4" d="M13.3,21.5c-0.4-1-1.5-1.3-2.4-1.1c-0.1,0-0.3-0.1-0.4-0.1C9,20.5,8,21.8,8.5,23.2c0.4,1.3,2,1.8,3.2,1.5
			C13,24.3,13.9,22.9,13.3,21.5z"/>
	</g>
</g>
</svg>
