<?xml version="1.0" encoding="utf-8"?>
<!-- Generator: Adobe Illustrator 23.0.1, SVG Export Plug-In . SVG Version: 6.00 Build 0)  -->
<svg version="1.1" id="Layer_1" xmlns="http://www.w3.org/2000/svg" xmlns:xlink="http://www.w3.org/1999/xlink" x="0px" y="0px"
	 viewBox="0 0 32 32" style="enable-background:new 0 0 32 32;" xml:space="preserve">
<style type="text/css">
	.st0{fill:#83D3AE;}
	.st1{fill:#83D3AE;stroke:#19284F;stroke-miterlimit:10;}
	.st2{fill:#FFDC4F;}
	.st3{fill:#973A91;}
	.st4{fill:#19284F;}
	.st5{fill:none;stroke:#19284F;stroke-miterlimit:10;}
	.st6{fill:#FFFFFF;stroke:#19284F;stroke-miterlimit:10;}
	.st7{fill:#19284F;stroke:#19284F;stroke-width:0.5;stroke-miterlimit:10;}
	.st8{fill:none;stroke:#19284F;stroke-width:2;stroke-miterlimit:10;}
	.st9{clip-path:url(#SVGID_2_);fill:#19284F;}
	.st10{fill:#973A91;stroke:#19284F;stroke-miterlimit:10;}
	.st11{fill:none;stroke:#19284F;stroke-linecap:round;stroke-miterlimit:10;}
	.st12{fill:#83D3AE;stroke:#19284F;stroke-linecap:round;stroke-miterlimit:10;}
	.st13{fill:#973A91;stroke:#19284F;stroke-linecap:round;stroke-miterlimit:10;}
	.st14{fill:#FFFFFF;stroke:#19284F;stroke-linecap:round;stroke-miterlimit:10;}
	.st15{fill:none;stroke:#E7443C;stroke-width:4;stroke-miterlimit:10;}
	.st16{fill:none;stroke:#F8BB2D;stroke-width:4;stroke-miterlimit:10;}
	.st17{fill:none;stroke:#3AA757;stroke-width:4;stroke-miterlimit:10;}
	.st18{fill:none;stroke:#19284F;stroke-width:4;stroke-miterlimit:10;}
	.st19{fill:none;stroke:#19284F;stroke-linecap:round;stroke-linejoin:round;stroke-miterlimit:10;}
	.st20{fill:#973A91;stroke:#19284F;stroke-linecap:round;stroke-linejoin:round;stroke-miterlimit:10;}
	.st21{fill:#F3FF00;stroke:#19284F;stroke-linecap:round;stroke-linejoin:round;stroke-miterlimit:10;}
	.st22{fill:#FFFFFF;}
	.st23{fill:#19284F;stroke:#19284F;stroke-miterlimit:10;}
	.st24{fill:none;stroke:#19284F;stroke-linejoin:round;stroke-miterlimit:10;}
</style>
<g>
	<path class="st6" d="M13.2,13.8H2.3c-0.7,0-1.3-0.6-1.3-1.3V7c0-0.7,0.6-1.3,1.3-1.3H13"/>
	<path class="st6" d="M13.1,31H7c-0.6,0-1-0.4-1-1V2c0-0.6,0.4-1,1-1h6.1c0.6,0,1,0.4,1,1v28C14.1,30.6,13.7,31,13.1,31z"/>
	<path class="st6" d="M1,25.7v-6.1c0-0.6,0.4-1,1-1h28c0.6,0,1,0.4,1,1v6.1c0,0.6-0.4,1-1,1H2C1.4,26.7,1,26.2,1,25.7z"/>
	<path class="st6" d="M25.9,31h-6.1c-0.6,0-1-0.4-1-1V2c0-0.6,0.4-1,1-1h6.1c0.6,0,1,0.4,1,1v28C26.9,30.6,26.4,31,25.9,31z"/>
	<path class="st6" d="M14.9,5.7h14.8C30.4,5.7,31,6.3,31,7v5.5c0,0.7-0.6,1.3-1.3,1.3H15.1"/>
</g>
</svg>
