<?xml version="1.0" encoding="UTF-8"?>
<svg width="22px" height="22px" viewBox="0 0 22 22" version="1.1" xmlns="http://www.w3.org/2000/svg" xmlns:xlink="http://www.w3.org/1999/xlink">
    <!-- Generator: sketchtool 48.1 (47250) - http://www.bohemiancoding.com/sketch -->
    <title>5760F278-C636-4912-80C2-E666852898AD</title>
    <desc>Created with sketchtool.</desc>
    <defs/>
    <g id="HEADER-FULL" transform="translate(-1026.000000, -26.000000)">
        <g id="LANGUAGE" transform="translate(1003.000000, 26.000000)">
            <path d="M34,0 C27.9346301,0 23,4.93463014 23,11 C23,17.0653699 27.9346301,22 34,22 C40.0653699,22 45,17.0653699 45,11 C45,4.93463014 40.0653699,0 34,0 Z M25.0625,10.828125 C25.0625,10.1786226 25.1353439,9.54628125 25.2686088,8.9375 L27.125,8.9375 C27.0258984,9.56227885 26.9697125,10.201601 26.9697125,10.8554663 C26.9697125,11.4904255 27.0236396,12.1108413 27.1182238,12.71875 L25.2686088,12.71875 C25.1353439,12.1099687 25.0625,11.4776274 25.0625,10.828125 Z M29.1875,10.8554663 C29.1875,10.1986923 29.2591473,9.5584976 29.391942,8.9375 L32.96875,8.9375 L32.96875,12.71875 L29.3765007,12.71875 C29.2538973,12.1175312 29.1875,11.4962428 29.1875,10.8554663 Z M35.03125,3.4375 C36.2379761,4.40125544 37.1669543,5.56772491 37.78125,6.875 L35.03125,6.875 L35.03125,3.4375 Z M32.96875,3.4375 L32.96875,6.875 L30.21875,6.875 C30.8332405,5.56825548 31.7607343,4.40037952 32.96875,3.4375 Z M32.96875,15.125 L32.96875,18.90625 C31.7461058,17.8416201 30.8223302,16.5631179 30.21875,15.125 L32.96875,15.125 Z M35.03125,18.5625 L35.03125,15.125 L37.78125,15.125 C37.1780619,16.4331972 36.2522383,17.5937735 35.03125,18.5625 Z M35.03125,12.71875 L35.03125,8.9375 L38.6114551,8.9375 C38.7442497,9.55820673 38.8125,10.1989832 38.8125,10.8554663 C38.8125,11.4959519 38.7479556,12.1178221 38.6250434,12.71875 L35.03125,12.71875 Z M40.53125,8.9375 L42.3876412,8.9375 C42.5211884,9.54628125 42.59375,10.1786226 42.59375,10.828125 C42.59375,11.4776274 42.5209061,12.1099687 42.3876412,12.71875 L40.5377438,12.71875 C40.632328,12.1108413 40.6862551,11.4901346 40.6862551,10.8554663 C40.6865375,10.201601 40.6303516,9.56227885 40.53125,8.9375 Z M41.90625,6.875 L40.1873279,6.875 C39.6639211,5.35488861 38.8522571,3.96225248 37.78125,2.75 C39.5565254,3.60241337 41.0122689,5.06219059 41.90625,6.875 Z M30.21875,2.75 C29.1477429,3.96225248 28.3360789,5.35488861 27.8126721,6.875 L26.09375,6.875 C26.9874361,5.06219059 28.4431796,3.60241337 30.21875,2.75 Z M26.09375,15.125 L27.806561,15.125 C28.3296899,16.6433023 29.1435116,18.0358537 30.21875,19.25 C28.4435421,18.3960711 26.9883034,16.9369275 26.09375,15.125 Z M37.78125,19.25 C38.8567841,18.0358537 39.6706059,16.6433023 40.193439,15.125 L41.90625,15.125 C41.0116966,16.9369275 39.5564579,18.3960711 37.78125,19.25 Z" id="ICONS/LANGUAGE"/>
        </g>
    </g>
</svg>