<?xml version="1.0" encoding="UTF-8"?>
<svg width="24px" height="14px" viewBox="0 0 24 14" version="1.1" xmlns="http://www.w3.org/2000/svg" xmlns:xlink="http://www.w3.org/1999/xlink">
    <!-- Generator: sketchtool 48.1 (47250) - http://www.bohemiancoding.com/sketch -->
    <title>EA773B2E-DF6E-4855-9525-A8528C90B14E</title>
    <desc>Created with sketchtool.</desc>
    <defs/>
    <g id="HEADER-FULL" transform="translate(-947.000000, -31.000000)">
        <g id="INSTRUCTION" transform="translate(872.000000, 29.000000)">
            <path d="M92,12 C90.344,12 89,10.657 89,9 C89,7.343 90.344,6 92,6 C93.656,6 95,7.343 95,9 C95,10.657 93.656,12 92,12 M92,2 L82,2 C78.14,2 75,5.14 75,9 C75,12.86 78.14,16 82,16 L92,16 C95.86,16 99,12.86 99,9 C99,5.14 95.86,2 92,2" id="ICONS/TOGGLE"/>
        </g>
    </g>
</svg>