<?xml version="1.0" encoding="utf-8"?>
<!-- Generator: Adobe Illustrator 23.0.1, SVG Export Plug-In . SVG Version: 6.00 Build 0)  -->
<svg version="1.1" id="Layer_1" xmlns="http://www.w3.org/2000/svg" xmlns:xlink="http://www.w3.org/1999/xlink" x="0px" y="0px"
	 viewBox="0 0 32 32" style="enable-background:new 0 0 32 32;" xml:space="preserve">
<style type="text/css">
	.st0{fill:#83D3AE;}
	.st1{fill:#83D3AE;stroke:#19284F;stroke-miterlimit:10;}
	.st2{fill:#FFDC4F;}
	.st3{fill:#973A91;}
	.st4{fill:#19284F;}
	.st5{fill:none;stroke:#19284F;stroke-miterlimit:10;}
	.st6{fill:#FFFFFF;stroke:#19284F;stroke-miterlimit:10;}
	.st7{fill:#19284F;stroke:#19284F;stroke-width:0.5;stroke-miterlimit:10;}
	.st8{fill:none;stroke:#19284F;stroke-width:2;stroke-miterlimit:10;}
	.st9{clip-path:url(#SVGID_2_);fill:#19284F;}
	.st10{fill:#973A91;stroke:#19284F;stroke-miterlimit:10;}
	.st11{fill:none;stroke:#19284F;stroke-linecap:round;stroke-miterlimit:10;}
	.st12{fill:#83D3AE;stroke:#19284F;stroke-linecap:round;stroke-miterlimit:10;}
	.st13{fill:#973A91;stroke:#19284F;stroke-linecap:round;stroke-miterlimit:10;}
	.st14{fill:#FFFFFF;stroke:#19284F;stroke-linecap:round;stroke-miterlimit:10;}
	.st15{fill:none;stroke:#E7443C;stroke-width:4;stroke-miterlimit:10;}
	.st16{fill:none;stroke:#F8BB2D;stroke-width:4;stroke-miterlimit:10;}
	.st17{fill:none;stroke:#3AA757;stroke-width:4;stroke-miterlimit:10;}
	.st18{fill:none;stroke:#19284F;stroke-width:4;stroke-miterlimit:10;}
	.st19{fill:none;stroke:#19284F;stroke-linecap:round;stroke-linejoin:round;stroke-miterlimit:10;}
	.st20{fill:#973A91;stroke:#19284F;stroke-linecap:round;stroke-linejoin:round;stroke-miterlimit:10;}
	.st21{fill:#F3FF00;stroke:#19284F;stroke-linecap:round;stroke-linejoin:round;stroke-miterlimit:10;}
	.st22{fill:#FFFFFF;}
	.st23{fill:#19284F;stroke:#19284F;stroke-miterlimit:10;}
	.st24{fill:none;stroke:#19284F;stroke-linejoin:round;stroke-miterlimit:10;}
</style>
<g>
	<path class="st6" d="M30.3,11.6L10.6,31.3c-0.3,0.3-0.9,0.3-1.3-0.1l-8.3-8.3c-0.4-0.4-0.5-1-0.1-1.3L20.5,1.8
		c0.1-0.1,0.3-0.2,0.5-0.2l9.3-1c0.6-0.1,1.3,0.6,1.2,1.2l-1,9.3C30.5,11.3,30.4,11.4,30.3,11.6z"/>
	<circle class="st4" cx="26.8" cy="5.3" r="1.7"/>
	<line class="st14" x1="9.4" y1="17.4" x2="20" y2="6.8"/>
	<line class="st14" x1="12.1" y1="20" x2="22.7" y2="9.5"/>
	<line class="st14" x1="14.8" y1="22.7" x2="25.3" y2="12.2"/>
	<path class="st1" d="M12.3,26.1l-1.7,1.7c-0.4,0.4-1,0.4-1.4,0l-4.9-4.9c-0.4-0.4-0.4-1,0-1.4L6,19.8c0.4-0.4,1-0.4,1.4,0l4.9,4.9
		C12.7,25.1,12.7,25.7,12.3,26.1z"/>
</g>
</svg>
