<?xml version="1.0" encoding="utf-8"?>
<!-- Generator: Adobe Illustrator 23.0.1, SVG Export Plug-In . SVG Version: 6.00 Build 0)  -->
<svg version="1.1" id="Layer_1" xmlns="http://www.w3.org/2000/svg" xmlns:xlink="http://www.w3.org/1999/xlink" x="0px" y="0px"
	 viewBox="0 0 32 32" style="enable-background:new 0 0 32 32;" xml:space="preserve">
<style type="text/css">
	.st0{fill:#83D3AE;}
	.st1{fill:#83D3AE;stroke:#19284F;stroke-miterlimit:10;}
	.st2{fill:#FFDC4F;}
	.st3{fill:#973A91;}
	.st4{fill:#19284F;}
	.st5{fill:none;stroke:#19284F;stroke-miterlimit:10;}
	.st6{fill:#FFFFFF;stroke:#19284F;stroke-miterlimit:10;}
	.st7{fill:#19284F;stroke:#19284F;stroke-width:0.5;stroke-miterlimit:10;}
	.st8{fill:none;stroke:#19284F;stroke-width:2;stroke-miterlimit:10;}
	.st9{clip-path:url(#SVGID_2_);fill:#19284F;}
	.st10{fill:#973A91;stroke:#19284F;stroke-miterlimit:10;}
	.st11{fill:none;stroke:#19284F;stroke-linecap:round;stroke-miterlimit:10;}
	.st12{fill:#83D3AE;stroke:#19284F;stroke-linecap:round;stroke-miterlimit:10;}
	.st13{fill:#973A91;stroke:#19284F;stroke-linecap:round;stroke-miterlimit:10;}
	.st14{fill:#FFFFFF;stroke:#19284F;stroke-linecap:round;stroke-miterlimit:10;}
	.st15{fill:none;stroke:#E7443C;stroke-width:4;stroke-miterlimit:10;}
	.st16{fill:none;stroke:#F8BB2D;stroke-width:4;stroke-miterlimit:10;}
	.st17{fill:none;stroke:#3AA757;stroke-width:4;stroke-miterlimit:10;}
	.st18{fill:none;stroke:#19284F;stroke-width:4;stroke-miterlimit:10;}
	.st19{fill:none;stroke:#19284F;stroke-linecap:round;stroke-linejoin:round;stroke-miterlimit:10;}
	.st20{fill:#973A91;stroke:#19284F;stroke-linecap:round;stroke-linejoin:round;stroke-miterlimit:10;}
	.st21{fill:#F3FF00;stroke:#19284F;stroke-linecap:round;stroke-linejoin:round;stroke-miterlimit:10;}
	.st22{fill:#FFFFFF;}
	.st23{fill:#19284F;stroke:#19284F;stroke-miterlimit:10;}
	.st24{fill:none;stroke:#19284F;stroke-linejoin:round;stroke-miterlimit:10;}
</style>
<g>
	<path class="st3" d="M22.7,27.6c0,0,0-0.1,0-0.1c-0.1-1.7-0.9-2.8-1.3-4.4c-0.2-0.9-1.1-1.2-1.9-1c-3.2-2.5-8.8-2.3-13-1.4
		c-0.3-0.1-0.7,0-1,0.1c-2.7,1.3-4.4,3.6-4.9,6.6c-0.1,0.5,0,0.9,0.2,1.3c0,0.1-0.1,0.1-0.1,0.2c-0.4,0.9,0.1,2.4,1.3,2.3
		c3.9-0.4,7.6,0.2,11.5,0.3c2.6,0.1,6.2,0.6,8.7-0.5c0.5-0.2,0.7-0.8,0.8-1.3C23,29,22.9,28.3,22.7,27.6z"/>
	<g>
		<path class="st4" d="M11.6,18.3c-4.1,0-7.4-3.3-7.4-7.4c0-4.1,3.3-7.4,7.4-7.4c4.1,0,7.4,3.3,7.4,7.4C19,15,15.7,18.3,11.6,18.3z
			 M11.6,4.6c-3.4,0-6.2,2.8-6.2,6.2c0,3.4,2.8,6.2,6.2,6.2c3.4,0,6.2-2.8,6.2-6.2C17.9,7.4,15.1,4.6,11.6,4.6z"/>
	</g>
	<path class="st4" d="M23.3,27.6c0-4.5-3.7-8.2-8.2-8.2H8.2c-4.5,0-8.2,3.7-8.2,8.2l0,2.8c0,0.9,0.8,1.6,1.7,1.6h19.9
		c0.9,0,1.7-0.7,1.7-1.6L23.3,27.6z M21.6,30.9h-3.1v-2.1c0-0.3-0.3-0.6-0.6-0.6c-0.3,0-0.6,0.3-0.6,0.6v2.1H5.9v-2.1
		c0-0.3-0.3-0.6-0.6-0.6c-0.3,0-0.6,0.3-0.6,0.6v2.1H1.7c-0.3,0-0.6-0.2-0.6-0.5v-2.7c0-3.9,3.2-7,7-7h6.9c3.9,0,7,3.2,7,7v2.7
		C22.1,30.6,21.9,30.9,21.6,30.9z"/>
</g>
<g>
	<path class="st1" d="M30,0.6H15.7c-0.8,0-1.4,0.6-1.4,1.4v9.4c0,0.8,0.6,1.4,1.4,1.4h1.4v4.6c0,0.3,0.4,0.4,0.5,0.2l3-4.8H30
		c0.8,0,1.4-0.6,1.4-1.4V2C31.4,1.2,30.8,0.6,30,0.6z"/>
</g>
<line class="st11" x1="17.6" y1="5.6" x2="28.4" y2="5.6"/>
<line class="st11" x1="17.6" y1="8.4" x2="28.4" y2="8.4"/>
</svg>
