<?xml version="1.0" encoding="utf-8"?>
<!-- Generator: Adobe Illustrator 22.1.0, SVG Export Plug-In . SVG Version: 6.00 Build 0)  -->
<svg version="1.1" id="Layer_1" xmlns="http://www.w3.org/2000/svg" xmlns:xlink="http://www.w3.org/1999/xlink" x="0px" y="0px"
	 viewBox="0 0 32 32" style="enable-background:new 0 0 32 32;" xml:space="preserve">
<style type="text/css">
	.st0{fill:#83D3AE;}
	.st1{fill:#83D3AE;stroke:#19284F;stroke-miterlimit:10;}
	.st2{fill:#FFDC4F;}
	.st3{fill:#973A91;}
	.st4{fill:#19284F;}
	.st5{fill:none;stroke:#19284F;stroke-miterlimit:10;}
	.st6{fill:#FFFFFF;stroke:#19284F;stroke-miterlimit:10;}
	.st7{fill:#00FF7F;}
	.st8{fill:#19284F;stroke:#19284F;stroke-width:0.5;stroke-miterlimit:10;}
	.st9{fill:none;stroke:#19284F;stroke-width:2;stroke-miterlimit:10;}
	.st10{clip-path:url(#SVGID_2_);fill:#19284F;}
	.st11{fill:#973A91;stroke:#19284F;stroke-miterlimit:10;}
	.st12{fill:none;stroke:#19284F;stroke-linecap:round;stroke-miterlimit:10;}
	.st13{fill:#83D3AE;stroke:#19284F;stroke-linecap:round;stroke-miterlimit:10;}
	.st14{fill:#973A91;stroke:#19284F;stroke-linecap:round;stroke-miterlimit:10;}
	.st15{fill:#FFFFFF;stroke:#19284F;stroke-linecap:round;stroke-miterlimit:10;}
	.st16{fill:none;stroke:#E7443C;stroke-width:4;stroke-miterlimit:10;}
	.st17{fill:none;stroke:#F8BB2D;stroke-width:4;stroke-miterlimit:10;}
	.st18{fill:none;stroke:#3AA757;stroke-width:4;stroke-miterlimit:10;}
	.st19{fill:none;stroke:#19284F;stroke-width:4;stroke-miterlimit:10;}
	.st20{fill:none;stroke:#19284F;stroke-linecap:round;stroke-linejoin:round;stroke-miterlimit:10;}
	.st21{fill:#973A91;stroke:#19284F;stroke-linecap:round;stroke-linejoin:round;stroke-miterlimit:10;}
	.st22{fill:#FFFFFF;}
	.st23{fill:#19284F;stroke:#19284F;stroke-miterlimit:10;}
	.st24{fill:none;stroke:#19284F;stroke-linejoin:round;stroke-miterlimit:10;}
</style>
<g>
	<defs>
		<rect id="SVGID_1_" x="-0.2" y="0" width="32.2" height="32.2"/>
	</defs>
	<clipPath id="SVGID_2_">
		<use xlink:href="#SVGID_1_"  style="overflow:visible;"/>
	</clipPath>
	<path class="st10" d="M23.8,0.6c-1.4-0.2-2.9,0.1-4.3,0c-1.9-0.1-3.7-0.6-5.4-1.1c-0.9-0.3-1.6,0.1-2,0.7c-0.8,0.2-1.4,0.7-1.3,1.8
		c-0.1-0.8,0.3-0.6-0.6-0.5C9.8,1.5,9.3,1.9,9,2.1C8.3,2.7,7.9,3.6,7.7,4.4c-0.4,2,0.6,4.3,1.8,5.9c1.2,1.6,3,2.6,5,1.9
		c0.5-0.2,1-0.6,1.5-0.6c0.6,0,0.5,0.2,1.1,0.5c0.9,0.5,1.4,1,2.5,0.8c2-0.2,3.4-2.3,4-3.9c0.3-0.8,0.3-2.4,0.8-3
		c0.6-0.7,1.4-0.5,1.9-1.6C26.9,2.6,25.5,0.9,23.8,0.6z"/>
	<path class="st10" d="M10.6,26.1c-0.5-1.4-1.2-3.9-2.7-4.6c0,0,0,0-0.1,0c0-0.1,0-0.3,0.1-0.5c0.1-0.9,0-1.6-0.4-2.3
		c-0.8-1.4-3.1-1.2-3.5,0.5c-0.2,1.2-1.2,2.1-2.5,1.9c-1.8-0.3-2.8,1.5-2.2,2.7c-0.1,0.1-0.2,0.3-0.3,0.5c-0.8,1.6-0.6,4.8,0.1,6.5
		c0.7,1.9,2.4,2.1,4.2,2C6.3,32.4,11.9,30,10.6,26.1z"/>
	<path class="st10" d="M20.5,15.6c-1.7-1.3-3.7-1.9-5.8-1.9c-1.1-0.4-2.7,0.1-2.7,1.7c0,1.4-0.1,2.9-0.1,4.3c0,1.2-0.3,2.6,0,3.8
		c0.3,1,1.1,1.6,2.1,1.5c0.6,0,1.1-0.3,1.5-0.7c0.3-0.3,0.5-0.9,0.8-1.2c0.7-0.5,1.7-0.6,2.4-1.4c0.6-0.7,1-1.6,1-2.5
		C21.6,19,21.8,16.6,20.5,15.6z"/>
	<path class="st10" d="M33,5.8c0.1-0.1,0.1-0.3,0.2-0.4c1.4-2-1.9-4-3.3-1.9c-0.5,0.8-0.8,2.2-1.2,3.1c0-0.4-1.2,0.5-1.4,0.8
		c-1.1,1.1-1.1,2.5-0.9,3.9c-1.1,0.6-2.5,0.8-3.4,1.9c-0.8,1-1.3,2.3-1.1,3.6c0.6,3.9,5.6,3.2,7.2,6.5c0.5,1.1,2.2,1.2,3,0.4
		c1.6-1.6,1.4-3.9,1.6-6c0.3-3.3,0.6-6.7,0.8-10C34.6,6.5,33.9,5.9,33,5.8z"/>
	<path class="st10" d="M29.1,25.1c-1.3-0.5-2.5-0.2-3.7,0.4c-0.7,0.3-1.3,0.9-2,1.1c-1.1,0.4-1.6-0.2-2.7-0.5
		c-3.7-0.9-5.6,2.1-6.3,5.3c-0.5,2.3,2.9,3.3,3.6,1.2c0,0,0.1,0,0.1,0c2.6,0,5.2,0,7.9,0c1.7,0,4,0.5,5.4-0.7
		C33.6,30,31.4,25.9,29.1,25.1z"/>
	<path class="st10" d="M1.6,7.6C-0.2,6-2.7,8.4-1.4,10c0.2,1.7,0.2,3.5,0.2,5.2c0,2.1,2.5,2.4,3.5,1C4.4,13.6,3.9,9.7,1.6,7.6z"/>
	<path class="st10" d="M4.5-1.9c-1-0.6-2.1-0.4-3-0.7c-1-0.2-2.1,0.3-2.3,1.3C-1-0.5-0.8,0.2-0.3,0.7c0,0.5,0.2,0.9,0.5,1.3
		C1,2.8,1.9,3.4,3.1,3.5c1.3,0,2.6-0.8,2.9-2.1C6.3,0.1,5.6-1.2,4.5-1.9z"/>
</g>
</svg>
