<?xml version="1.0" encoding="utf-8"?>
<!-- Generator: Adobe Illustrator 23.0.1, SVG Export Plug-In . SVG Version: 6.00 Build 0)  -->
<svg version="1.1" id="Layer_1" xmlns="http://www.w3.org/2000/svg" xmlns:xlink="http://www.w3.org/1999/xlink" x="0px" y="0px"
	 viewBox="0 0 32 32" style="enable-background:new 0 0 32 32;" xml:space="preserve">
<style type="text/css">
	.st0{fill:#83D3AE;}
	.st1{fill:#83D3AE;stroke:#19284F;stroke-miterlimit:10;}
	.st2{fill:#FFDC4F;}
	.st3{fill:#973A91;}
	.st4{fill:#19284F;}
	.st5{fill:none;stroke:#19284F;stroke-miterlimit:10;}
	.st6{fill:#FFFFFF;stroke:#19284F;stroke-miterlimit:10;}
	.st7{fill:#19284F;stroke:#19284F;stroke-width:0.5;stroke-miterlimit:10;}
	.st8{fill:none;stroke:#19284F;stroke-width:2;stroke-miterlimit:10;}
	.st9{clip-path:url(#SVGID_2_);fill:#19284F;}
	.st10{fill:#973A91;stroke:#19284F;stroke-miterlimit:10;}
	.st11{fill:none;stroke:#19284F;stroke-linecap:round;stroke-miterlimit:10;}
	.st12{fill:#83D3AE;stroke:#19284F;stroke-linecap:round;stroke-miterlimit:10;}
	.st13{fill:#973A91;stroke:#19284F;stroke-linecap:round;stroke-miterlimit:10;}
	.st14{fill:#FFFFFF;stroke:#19284F;stroke-linecap:round;stroke-miterlimit:10;}
	.st15{fill:none;stroke:#E7443C;stroke-width:4;stroke-miterlimit:10;}
	.st16{fill:none;stroke:#F8BB2D;stroke-width:4;stroke-miterlimit:10;}
	.st17{fill:none;stroke:#3AA757;stroke-width:4;stroke-miterlimit:10;}
	.st18{fill:none;stroke:#19284F;stroke-width:4;stroke-miterlimit:10;}
	.st19{fill:none;stroke:#19284F;stroke-linecap:round;stroke-linejoin:round;stroke-miterlimit:10;}
	.st20{fill:#973A91;stroke:#19284F;stroke-linecap:round;stroke-linejoin:round;stroke-miterlimit:10;}
	.st21{fill:#F3FF00;stroke:#19284F;stroke-linecap:round;stroke-linejoin:round;stroke-miterlimit:10;}
	.st22{fill:#FFFFFF;}
	.st23{fill:#19284F;stroke:#19284F;stroke-miterlimit:10;}
	.st24{fill:none;stroke:#19284F;stroke-linejoin:round;stroke-miterlimit:10;}
</style>
<g>
	<path class="st1" d="M24.8,9.5c0,2.2-0.5,4.4-2.2,6.3l-3.5,4v1.7c0,1-0.5,1.5-1.5,1.5h-1.7c-1,0-1.5-0.5-1.5-1.5v-2.3
		c0-0.8,0.2-1.3,0.7-1.9l3.8-4.5c0.7-0.8,1.3-2.1,1.3-3.2c0-2.1-1.7-4.5-4.5-4.5c-2.7,0-4.5,2.1-4.5,4.7c0,1-0.5,1.5-1.5,1.5H8.1
		c-1,0-1.5-0.5-1.5-1.5c0-5,3.8-9.2,9.1-9.2C20.8,0.5,24.8,4.6,24.8,9.5z M17.7,26.5c1,0,1.5,0.5,1.5,1.5v1.9c0,1-0.5,1.5-1.5,1.5
		h-1.9c-1,0-1.5-0.5-1.5-1.5V28c0-1,0.5-1.5,1.5-1.5H17.7z"/>
</g>
</svg>
