<?xml version="1.0" encoding="utf-8"?>
<!-- Generator: Adobe Illustrator 22.1.0, SVG Export Plug-In . SVG Version: 6.00 Build 0)  -->
<svg version="1.1" id="Layer_1" xmlns="http://www.w3.org/2000/svg" xmlns:xlink="http://www.w3.org/1999/xlink" x="0px" y="0px"
	 viewBox="0 0 32 32" style="enable-background:new 0 0 32 32;" xml:space="preserve">
<style type="text/css">
	.st0{fill:#83D3AE;}
	.st1{fill:#83D3AE;stroke:#19284F;stroke-miterlimit:10;}
	.st2{fill:#FFDC4F;}
	.st3{fill:#973A91;}
	.st4{fill:#19284F;}
	.st5{fill:none;stroke:#19284F;stroke-miterlimit:10;}
	.st6{fill:#FFFFFF;stroke:#19284F;stroke-miterlimit:10;}
	.st7{fill:#00FF7F;}
	.st8{fill:#19284F;stroke:#19284F;stroke-width:0.5;stroke-miterlimit:10;}
	.st9{fill:none;stroke:#19284F;stroke-width:2;stroke-miterlimit:10;}
	.st10{clip-path:url(#SVGID_2_);fill:#19284F;}
	.st11{fill:#973A91;stroke:#19284F;stroke-miterlimit:10;}
	.st12{fill:none;stroke:#19284F;stroke-linecap:round;stroke-miterlimit:10;}
	.st13{fill:#83D3AE;stroke:#19284F;stroke-linecap:round;stroke-miterlimit:10;}
	.st14{fill:#973A91;stroke:#19284F;stroke-linecap:round;stroke-miterlimit:10;}
	.st15{fill:#FFFFFF;stroke:#19284F;stroke-linecap:round;stroke-miterlimit:10;}
	.st16{fill:none;stroke:#E7443C;stroke-width:4;stroke-miterlimit:10;}
	.st17{fill:none;stroke:#F8BB2D;stroke-width:4;stroke-miterlimit:10;}
	.st18{fill:none;stroke:#3AA757;stroke-width:4;stroke-miterlimit:10;}
	.st19{fill:none;stroke:#19284F;stroke-width:4;stroke-miterlimit:10;}
	.st20{fill:none;stroke:#19284F;stroke-linecap:round;stroke-linejoin:round;stroke-miterlimit:10;}
	.st21{fill:#973A91;stroke:#19284F;stroke-linecap:round;stroke-linejoin:round;stroke-miterlimit:10;}
	.st22{fill:#FFFFFF;}
	.st23{fill:#19284F;stroke:#19284F;stroke-miterlimit:10;}
	.st24{fill:none;stroke:#19284F;stroke-linejoin:round;stroke-miterlimit:10;}
</style>
<g>
	<path class="st1" d="M28.9,0.5H3C1.6,0.5,0.5,1.6,0.5,3v17c0,1.4,1.1,2.5,2.5,2.5h2.6v8.4c0,0.5,0.7,0.7,1,0.3l5.4-8.7h16.9
		c1.4,0,2.5-1.1,2.5-2.5V3C31.5,1.6,30.3,0.5,28.9,0.5z"/>
</g>
<g>
	<path class="st3" d="M16.4,22.4l0-1.9c0-0.6,0.4-1,1-1l13.6,0c0.6,0,1,0.4,1,1v1.9c0,0.6-0.4,1-1,1l-13.6,0
		C16.8,23.4,16.4,23,16.4,22.4z"/>
	<path class="st3" d="M23.3,13.7l1.9,0c0.6,0,1,0.4,1,1l0,13.6c0,0.6-0.4,1-1,1l-1.9,0c-0.6,0-1-0.4-1-1l0-13.6
		C22.3,14.1,22.7,13.7,23.3,13.7z"/>
</g>
</svg>
