<?xml version="1.0" encoding="utf-8"?>
<!-- Generator: Adobe Illustrator 23.0.1, SVG Export Plug-In . SVG Version: 6.00 Build 0)  -->
<svg version="1.1" id="Layer_1" xmlns="http://www.w3.org/2000/svg" xmlns:xlink="http://www.w3.org/1999/xlink" x="0px" y="0px"
	 viewBox="0 0 32 32" style="enable-background:new 0 0 32 32;" xml:space="preserve">
<style type="text/css">
	.st0{fill:#83D3AE;}
	.st1{fill:#83D3AE;stroke:#19284F;stroke-miterlimit:10;}
	.st2{fill:#FFDC4F;}
	.st3{fill:#973A91;}
	.st4{fill:#19284F;}
	.st5{fill:none;stroke:#19284F;stroke-miterlimit:10;}
	.st6{fill:#FFFFFF;stroke:#19284F;stroke-miterlimit:10;}
	.st7{fill:#19284F;stroke:#19284F;stroke-width:0.5;stroke-miterlimit:10;}
	.st8{fill:none;stroke:#19284F;stroke-width:2;stroke-miterlimit:10;}
	.st9{clip-path:url(#SVGID_2_);fill:#19284F;}
	.st10{fill:#973A91;stroke:#19284F;stroke-miterlimit:10;}
	.st11{fill:none;stroke:#19284F;stroke-linecap:round;stroke-miterlimit:10;}
	.st12{fill:#83D3AE;stroke:#19284F;stroke-linecap:round;stroke-miterlimit:10;}
	.st13{fill:#973A91;stroke:#19284F;stroke-linecap:round;stroke-miterlimit:10;}
	.st14{fill:#FFFFFF;stroke:#19284F;stroke-linecap:round;stroke-miterlimit:10;}
	.st15{fill:none;stroke:#E7443C;stroke-width:4;stroke-miterlimit:10;}
	.st16{fill:none;stroke:#F8BB2D;stroke-width:4;stroke-miterlimit:10;}
	.st17{fill:none;stroke:#3AA757;stroke-width:4;stroke-miterlimit:10;}
	.st18{fill:none;stroke:#19284F;stroke-width:4;stroke-miterlimit:10;}
	.st19{fill:none;stroke:#19284F;stroke-linecap:round;stroke-linejoin:round;stroke-miterlimit:10;}
	.st20{fill:#973A91;stroke:#19284F;stroke-linecap:round;stroke-linejoin:round;stroke-miterlimit:10;}
	.st21{fill:#F3FF00;stroke:#19284F;stroke-linecap:round;stroke-linejoin:round;stroke-miterlimit:10;}
	.st22{fill:#FFFFFF;}
	.st23{fill:#19284F;stroke:#19284F;stroke-miterlimit:10;}
	.st24{fill:none;stroke:#19284F;stroke-linejoin:round;stroke-miterlimit:10;}
</style>
<g>
	<path class="st6" d="M31.5,9.2v20.2c0,1.1-0.9,2.1-2.1,2.1H2.6c-1.1,0-2.1-0.9-2.1-2.1V2.6c0-1.1,0.9-2.1,2.1-2.1H23"/>
	<path class="st6" d="M21.9,1.5c0.2-1,1.4-1.3,2.2-0.7l7,7.8c0.7,0.7,0.4,1.9-0.5,2.2l-8.7,1.7c-1,0.3-1.9-0.6-1.6-1.5L21.9,1.5z"/>
</g>
<g>
	<path class="st0" d="M6.2,29.7C6.2,29.7,6.2,29.7,6.2,29.7c-0.2,0-0.4-0.1-0.6-0.3l-3.3-4.1c-0.3-0.3-0.2-0.8,0.1-1
		c0.3-0.3,0.8-0.2,1,0.1L6.3,27l8.1-6.8c0.3-0.3,0.4-0.5,0.6-0.2c0,0.1-0.1,0.2-0.1,0.2l-8.4,9.3C6.6,29.7,6.4,29.7,6.2,29.7z"/>
</g>
<g>
	<path class="st0" d="M6.2,11.4C6.2,11.4,6.2,11.4,6.2,11.4c-0.2,0-0.4-0.1-0.6-0.3L2.3,7.1C2,6.7,2.1,6.3,2.4,6
		c0.3-0.3,0.8-0.2,1,0.1l2.9,2.5l8.1-6.8c0.3-0.3,0.4-0.5,0.6-0.2c0,0.1-0.1,0.2-0.1,0.2l-8.4,9.3C6.6,11.3,6.4,11.4,6.2,11.4z"/>
</g>
<rect x="4.9" y="13.8" class="st3" width="2" height="5"/>
<rect x="10.1" y="13.8" class="st3" width="2" height="5"/>
<rect x="15.4" y="13.8" class="st3" width="2" height="5"/>
<rect x="20.6" y="13.8" class="st3" width="2" height="5"/>
<rect x="25.9" y="13.8" class="st3" width="2" height="5"/>
</svg>
