<?xml version="1.0" encoding="UTF-8"?>
<svg width="20px" height="25px" viewBox="0 0 20 25" version="1.1" xmlns="http://www.w3.org/2000/svg" xmlns:xlink="http://www.w3.org/1999/xlink">
    <!-- Generator: sketchtool 48.1 (47250) - http://www.bohemiancoding.com/sketch -->
    <title>770AF43B-15F5-4561-AC3A-FCE5F8B8A5E0</title>
    <desc>Created with sketchtool.</desc>
    <defs></defs>
    <g id="HEADER-FULL" stroke="none" stroke-width="1" fill="none" fill-rule="evenodd" transform="translate(-1133.000000, -24.000000)">
        <g id="NOTIFICATIONS-CENTRE" transform="translate(1134.000000, 19.000000)" fill="#717171" fill-rule="nonzero">
            <g id="ICONS/NOTIFICATION" transform="translate(0.000000, 6.000000)">
                <path d="M6,19 C6,21.7614237 7.34314577,24 9,24 C10.6568542,24 12,21.7614237 12,19" id="BOTTOM-BELL"></path>
                <path d="M6.52431829,2.2431286 C2.972278,3.19145425 0.383624926,6.12834518 0.383624926,9.60950831 L0.383624926,13.2346689 C0.383624926,14.1786071 0.2935875,15.7067566 0.183392028,16.6405034 L0.00528625537,18.1496918 C-0.0501347138,18.619304 0.336642159,19 0.863680799,19 L17.1363086,19 C17.6658078,19 18.050018,18.6184045 17.9947032,18.1496918 L17.8165974,16.6405034 C17.7060118,15.7034512 17.6163645,14.177823 17.6163645,13.2346689 L17.6163645,9.60950831 C17.6163645,6.12888619 15.0248644,3.18848355 11.4687455,2.24146663 C11.364672,2.21375118 11.1540872,2.06546135 11.1540872,1.95204416 C11.1540872,0.864029996 10.1896671,0 8.99999472,0 C7.81274307,0 6.84590227,0.860730229 6.84590227,1.9224948 C6.84590227,2.06873089 6.74347867,2.18807544 6.61943033,2.21868337 C6.61943033,2.21868337 6.58772631,2.22683178 6.52431829,2.2431286 Z" id="TOP-BELL" stroke="#F3F2F0"></path>
            </g>
        </g>
    </g>
</svg>